<svg xmlns="http://www.w3.org/2000/svg" width="24" height="19" stroke="#000" stroke-linecap="round" stroke-linejoin="round" fill="#fff" fill-rule="evenodd"><path d="M20.3172 1.517a19.795 19.795 0 0 0-4.885-1.515.074.074 0 0 0-.0791.037c-.211.375-.4449.865-.608 1.249a18.271 18.271 0 0 0-5.487 0 12.623 12.623 0 0 0-.618-1.25.077.077 0 0 0-.0789-.037c-1.6869.2914-3.3287.801-4.884 1.516-.0134.0058-.0245.0156-.0321.028-3.112 4.648-3.964 9.182-3.546 13.66.0024.0221.0136.0423.031.056a19.899 19.899 0 0 0 5.9931 3.029.078.078 0 0 0 .0839-.028c.462-.63.8731-1.295 1.226-1.994.01-.0194.011-.0422.003-.0624a.076.076 0 0 0-.045-.0436c-.653-.248-1.274-.549-1.872-.892a.077.077 0 0 1-.0079-.128 10.216 10.216 0 0 0 .372-.291.074.074 0 0 1 .0779-.011c3.9281 1.793 8.1801 1.793 12.0611 0 .0255-.0121.0558-.0086.078.009a9.538 9.538 0 0 0 .3729.292.077.077 0 0 1-.0069.128 12.3 12.3 0 0 1-1.873.891.077.077 0 0 0-.041.107c.36.698.772 1.363 1.225 1.993.0188.0268.0526.0385.0839.029 1.9611-.607 3.9501-1.522 6.0021-3.029.0177-.013.0289-.033.0309-.055.5-5.177-.838-9.674-3.5489-13.66a.062.062 0 0 0-.0311-.029zM8.0202 12.478c-1.1821 0-2.1571-1.086-2.1571-2.419s.955-2.419 2.1571-2.419c1.211 0 2.1759 1.095 2.157 2.419 0 1.333-.9561 2.419-2.157 2.419zm7.9749 0c-1.1819 0-2.157-1.086-2.157-2.419s.955-2.419 2.157-2.419c1.211 0 2.1761 1.095 2.1571 2.419 0 1.333-.9461 2.419-2.1571 2.419z" stroke="none" fill-rule="nonzero"/></svg>