<svg xmlns="http://www.w3.org/2000/svg" width="24" height="24" stroke="#000" stroke-linecap="round" stroke-linejoin="round" fill="#fff" fill-rule="evenodd"><path d="M11.957 0C5.7047.0022.5017 4.8048 0 11.037l6.432 2.658c.545-.371 1.203-.59 1.912-.59l.188.006 2.861-4.142V8.91c.0033-2.4972 2.0268-4.5207 4.524-4.524s4.524 2.031 4.524 4.527-2.0264 4.5217-4.524 4.525h-.105l-4.076 2.911.004.159c0 1.875-1.515 3.396-3.39 3.396-1.635 0-3.016-1.173-3.331-2.727L.414 15.27C1.84 20.307 6.464 24 11.957 24c6.627 0 11.999-5.373 11.999-12S18.583 0 11.957 0zM7.518 18.21l-1.473-.61a2.55 2.55 0 0 0 4.646-.125c.263-.63.264-1.319.005-1.949a2.537 2.537 0 0 0-1.377-1.383c-.627-.262-1.29-.249-1.878-.03l1.523.63c.9552.4006 1.4064 1.4984 1.009 2.455s-1.497 1.41-2.454 1.012h-.001zm11.415-9.303c-.0028-1.664-1.351-3.0122-3.015-3.015-1.664.0028-3.0123 1.351-3.015 3.015s1.35 3.015 3.015 3.015 3.015-1.35 3.015-3.015zm-5.273-.005c0-1.252 1.013-2.266 2.265-2.266s2.2638 1.0154 2.266 2.266-1.0158 2.2628-2.266 2.265a2.264 2.264 0 0 1-2.265-2.265z" stroke="none" fill-rule="nonzero"/></svg>